<?xml version="1.0" encoding="utf-8"?>
<!-- Generator: Adobe Illustrator 16.2.1, SVG Export Plug-In . SVG Version: 6.00 Build 0)  -->
<!DOCTYPE svg PUBLIC "-//W3C//DTD SVG 1.1//EN" "http://www.w3.org/Graphics/SVG/1.1/DTD/svg11.dtd">
<svg version="1.1" id="Layer_1" xmlns="http://www.w3.org/2000/svg" xmlns:xlink="http://www.w3.org/1999/xlink" x="0px" y="0px"
	 width="416.301px" height="416.301px" viewBox="0 0 416.301 416.301" enable-background="new 0 0 416.301 416.301"
	 xml:space="preserve">
<g>
	<g>
		<g>
			<circle fill="#F6BA43" cx="208.15" cy="208.15" r="208.15"/>
		</g>
	</g>
	<g>
		<path fill="#E2A538" d="M228.577,89.401l-0.033-0.033l-0.019-0.02v0c-4.354-4.339-10.084-7.293-16.469-8.161
			c-1.277-0.174-2.58-0.272-3.906-0.272c-15.922,0-28.877,12.955-28.877,28.878c0,1.327,0.095,2.63,0.27,3.909
			c0.867,6.383,3.826,12.11,8.166,16.461l0,0l0.01,0.01l0.018,0.018l11.266,11.265v0.226c-11.085,1.047-21.619,3.981-31.283,8.473
			c-6.68,3.104-12.941,6.952-18.682,11.439l-8.693-8.692l-0.034-0.035l-0.001,0c0,0,0,0,0,0c-3.127-3.124-8.195-3.124-11.321,0.002
			l-6.469,6.471c-3.126,3.126-3.126,8.194,0,11.321l0.001,0.001c0,0,0.002,0.001,0.002,0.001l0.031,0.031l8.842,8.843
			c-4.051,5.374-7.547,11.187-10.41,17.354c-5.711,12.288-8.903,25.983-8.903,40.425c0,26.521,10.749,50.535,28.128,67.92
			c0.003,0.002,0.007,0.007,0.012,0.011c0.004,0.004,0.006,0.008,0.01,0.01l107.32,107.319
			c30.043-5.754,57.789-17.972,81.741-35.143c6.868-4.923,13.421-10.252,19.629-15.955c12.224-11.228,23.1-23.897,32.36-37.741
			c11.303-16.896,20.198-35.538,26.194-55.438L228.577,89.401z"/>
	</g>
	<g>
		<g>
			<g>
				<g>
					<g>
						
							<rect x="127.395" y="167.465" transform="matrix(0.7071 0.7071 -0.7071 0.7071 162.5736 -49.5654)" fill="#252C3D" width="27.449" height="8.006"/>
					</g>
				</g>
			</g>
			<g>
				<g>
					<g>
						<path fill="#252C3D" d="M128.18,173.005c-2.048,0-4.097-0.781-5.66-2.344c-3.127-3.126-3.127-8.195-0.001-11.322l6.47-6.471
							c3.125-3.126,8.195-3.126,11.32-0.001c3.127,3.126,3.129,8.195,0.002,11.322l-6.469,6.471
							C132.279,172.223,130.229,173.005,128.18,173.005z"/>
					</g>
				</g>
			</g>
		</g>
		<g>
			<g>
				<g>
					<path fill="#252C3D" d="M208.15,138.671c-15.922,0-28.877-12.954-28.877-28.877c0-15.923,12.955-28.878,28.877-28.878
						c15.925,0,28.878,12.955,28.878,28.878C237.028,125.717,224.075,138.671,208.15,138.671z M208.15,84.919
						c-13.715,0-24.875,11.159-24.875,24.875s11.16,24.875,24.875,24.875c13.717,0,24.875-11.159,24.875-24.875
						S221.867,84.919,208.15,84.919z"/>
				</g>
			</g>
		</g>
		<g>
			<g>
				<g>
					<circle fill="#FFFFFF" cx="208.151" cy="237.316" r="92.066"/>
				</g>
			</g>
		</g>
		<g>
			<g>
				<g>
					<path fill="#C74B37" d="M220.16,237.316c0,6.633-5.377,12.008-12.01,12.008c-6.631,0-12.008-5.375-12.008-12.008H220.16z"/>
				</g>
			</g>
		</g>
		<g>
			<g>
				<g>
					<path fill="#252C3D" d="M208.15,157.257c21.385,0,41.489,8.328,56.609,23.449c15.121,15.12,23.449,35.224,23.449,56.61
						c0,21.382-8.328,41.486-23.449,56.609c-15.12,15.12-35.225,23.448-56.609,23.448c-21.383,0-41.488-8.328-56.609-23.448
						c-15.121-15.123-23.447-35.228-23.447-56.609c0-21.386,8.326-41.49,23.447-56.61
						C166.662,165.585,186.767,157.257,208.15,157.257L208.15,157.257z M208.15,141.246c-53.057,0-96.069,43.011-96.069,96.07
						c0,53.056,43.013,96.068,96.069,96.068c53.058,0,96.07-43.013,96.07-96.068C304.221,184.257,261.208,141.246,208.15,141.246
						L208.15,141.246z"/>
				</g>
			</g>
		</g>
		<g>
			<g>
				<g>
					<polygon fill="#C74B37" points="196.143,237.316 220.16,237.316 208.15,173.281 					"/>
				</g>
			</g>
		</g>
		<g>
			<g>
				<g>
					<circle fill="#FFFFFF" cx="208.151" cy="237.316" r="6.862"/>
				</g>
			</g>
		</g>
		<g>
			<g>
				<g>
					<g>
						<polygon fill="#252C3D" points="207.144,168.11 207.144,173.324 209.158,173.324 209.158,168.11 209.158,163.383 
							207.144,163.383 						"/>
					</g>
				</g>
			</g>
			<g>
				<g>
					<g>
						<polygon fill="#252C3D" points="207.144,306.519 207.144,311.246 209.158,311.246 209.158,306.519 209.158,301.307 
							207.144,301.307 						"/>
					</g>
				</g>
			</g>
			<g>
				<g>
					<g>
						<polygon fill="#252C3D" points="277.354,236.306 272.143,236.306 272.143,238.324 277.354,238.324 282.082,238.324 
							282.082,236.306 						"/>
					</g>
				</g>
			</g>
			<g>
				<g>
					<g>
						<polygon fill="#252C3D" points="144.16,236.306 138.947,236.306 134.219,236.306 134.219,238.324 138.947,238.324 
							144.16,238.324 						"/>
					</g>
				</g>
			</g>
			<g>
				<g>
					<g>
						<path fill="#252C3D" d="M241.887,297.762l2.362,4.092l1.745-1.008l-2.362-4.092
							C243.055,297.099,242.474,297.432,241.887,297.762z"/>
					</g>
				</g>
			</g>
			<g>
				<g>
					<g>
						<path fill="#252C3D" d="M170.307,173.783l2.363,4.093c0.577-0.345,1.16-0.679,1.746-1.007l-2.363-4.093L170.307,173.783z"/>
					</g>
				</g>
			</g>
			<g>
				<g>
					<g>
						<path fill="#252C3D" d="M143.611,273.416l1.008,1.743l4.093-2.364c-0.345-0.576-0.68-1.157-1.008-1.744L143.611,273.416z"/>
					</g>
				</g>
			</g>
			<g>
				<g>
					<g>
						<path fill="#252C3D" d="M272.691,201.217l-1.008-1.745l-4.094,2.362c0.344,0.577,0.68,1.159,1.008,1.744L272.691,201.217z"/>
					</g>
				</g>
			</g>
			<g>
				<g>
					<g>
						<path fill="#252C3D" d="M267.59,272.794l4.094,2.364l1.008-1.743l-4.094-2.365C268.27,271.637,267.936,272.218,267.59,272.794
							z"/>
					</g>
				</g>
			</g>
			<g>
				<g>
					<g>
						<path fill="#252C3D" d="M143.611,201.216l4.093,2.362c0.328-0.585,0.663-1.167,1.009-1.744l-4.094-2.363L143.611,201.216z"/>
					</g>
				</g>
			</g>
			<g>
				<g>
					<g>
						<path fill="#252C3D" d="M241.887,176.869c0.587,0.328,1.168,0.663,1.745,1.008l2.362-4.093l-1.745-1.008L241.887,176.869z"/>
					</g>
				</g>
			</g>
			<g>
				<g>
					<g>
						<path fill="#252C3D" d="M170.308,300.848l1.745,1.008l2.363-4.094c-0.586-0.33-1.169-0.663-1.746-1.008L170.308,300.848z"/>
					</g>
				</g>
			</g>
		</g>
		<g>
			<g>
				<g>
					<rect x="204.148" y="114.369" fill="#252C3D" width="8.005" height="31.451"/>
				</g>
			</g>
		</g>
		<g>
			<g>
				<g>
					<path fill="#252C3D" d="M217.301,126.377h-18.299c-4.422,0-8.006-3.584-8.006-8.006s3.584-8.005,8.006-8.005h18.299
						c4.422,0,8.006,3.583,8.006,8.005S221.723,126.377,217.301,126.377z"/>
				</g>
			</g>
		</g>
		<g>
			<g>
				<g>
					<rect x="199.002" y="131.666" fill="#252C3D" width="18.299" height="15.44"/>
				</g>
			</g>
		</g>
	</g>
</g>
</svg>
